<svg xmlns="http://www.w3.org/2000/svg" viewBox="0 0 25.57 34"><defs><style>.a,.d,.e{fill:none;}.a,.b,.c,.d,.e{stroke:#fff;stroke-miterlimit:10;}.a,.c{stroke-width:0.5px;}.b,.c{fill:#fff;}.b{stroke-width:0.25px;}.d{stroke-width:0.4px;}.e{stroke-width:0.18px;}</style></defs><title>Asset 3</title><path class="a" d="M20.29,8.9a3,3,0,0,0,0,1c.15.95.67,1.3,1,2a4.6,4.6,0,0,1,0,3c-.27,1.24-.62,1.33-1,3a3,3,0,0,0,0,2,1.76,1.76,0,0,0,1,1,1.29,1.29,0,0,0,1,0c.58-.31.34-1,1-2,.36-.52.44-.31,1-1a4.24,4.24,0,0,0,1-2,3.55,3.55,0,0,0,0-1,8.12,8.12,0,0,0-2-4,12.24,12.24,0,0,0-2-2,12,12,0,0,0-4-2,15.79,15.79,0,0,0-7.5-.5,11.28,11.28,0,0,0-5,2,10.48,10.48,0,0,0-2,2c-.78,1-.47,1-1.5,2.5a4.45,4.45,0,0,0-1,2,3,3,0,0,0,0,1,4,4,0,0,0,1,2c.56.69.64.48,1,1,.65.94.42,1.69,1,2a1.29,1.29,0,0,0,1,0c.89-.38,1.13-1.9,1-3-.16-1.29-.77-1.43-1-3a5.1,5.1,0,0,1,0-2c.25-1.19.86-1.68,1-3a5.43,5.43,0,0,0,0-1"/><path class="a" d="M5.29,17.9a13.61,13.61,0,0,0,5,2,13.32,13.32,0,0,0,8-1l2-1"/><path class="b" d="M14.16,15.09c.14.38-.4,1.27-1.27,1.27s-1.42-.89-1.27-1.27C11.84,14.52,13.93,14.52,14.16,15.09Z"/><path class="c" d="M15.89,16.56a1.72,1.72,0,0,1-1,1,1.58,1.58,0,0,1-1,0,1.69,1.69,0,0,1-1-1,1.72,1.72,0,0,1-1,1,1.58,1.58,0,0,1-1,0,1.69,1.69,0,0,1-1-1"/><path class="a" d="M18.79,2.4l-5-1-1,5"/><circle class="c" cx="20.79" cy="2.4" r="2.15"/><circle class="c" cx="8.92" cy="11.9" r="1.5"/><circle class="c" cx="16.59" cy="11.9" r="1.5"/><path class="d" d="M12.12,29.41a7.3,7.3,0,0,1-.41,3.69c-.27.55-.45.65-.59.67-1,.19-2.42-3.29-2.55-3.66a36,36,0,0,1-1.08-4.93c-.18-2.58.17-5,1-5.15.45-.09,1,.54,1.59,1.53a15.78,15.78,0,0,1,.78,1.64A37.33,37.33,0,0,1,12.12,29.41Z"/><path class="d" d="M17.21,30.1c-.78,2.12-1.85,3.81-2.56,3.67s-1.06-2.11-1-4.35a36.35,36.35,0,0,1,.85-5c.8-2.46,2-4.57,2.82-4.41.45.08.75.88.9,2a14.35,14.35,0,0,1,.11,1.82A36.18,36.18,0,0,1,17.21,30.1Z"/><path class="d" d="M11.75,33a1.35,1.35,0,0,0,1.52.76A1.29,1.29,0,0,0,14,33"/><path class="d" d="M7.41,23.54a26.17,26.17,0,0,0-.93,4c-.42,2.76-.11,3.61.07,4a3.25,3.25,0,0,0,2,2,2.48,2.48,0,0,0,1,0l.53-.61"/><path class="d" d="M18.43,23.54a28.81,28.81,0,0,1,.93,4c.42,2.76.1,3.61-.07,4a3.25,3.25,0,0,1-2,2,2.49,2.49,0,0,1-1,0l-.52-.61"/><path class="d" d="M6.45,30a7.93,7.93,0,0,1-2.16-.6A7.82,7.82,0,0,1,2,27.83,5.27,5.27,0,0,0,3.5,30.58a5.53,5.53,0,0,0,1.17.79,5.72,5.72,0,0,0,2.16.6"/><line class="e" x1="10.81" y1="31.92" x2="11.16" y2="33.88"/><line class="e" x1="11.34" y1="31.75" x2="11.64" y2="33.45"/><line class="e" x1="10.24" y1="31.95" x2="10.54" y2="33.65"/><line class="e" x1="14.96" y1="31.92" x2="14.61" y2="33.88"/><line class="e" x1="14.44" y1="31.85" x2="14.14" y2="33.55"/><line class="e" x1="15.54" y1="31.95" x2="15.24" y2="33.65"/><line class="e" x1="8.39" y1="32.05" x2="8.39" y2="33.55"/><line class="e" x1="8.99" y1="32.05" x2="8.99" y2="33.55"/><line class="e" x1="7.79" y1="32.1" x2="7.79" y2="33.3"/><line class="e" x1="17.39" y1="32.05" x2="17.39" y2="33.55"/><line class="e" x1="16.79" y1="32.05" x2="16.79" y2="33.55"/><line class="e" x1="17.99" y1="32.1" x2="17.99" y2="33.3"/></svg>